<svg width="137" height="98" viewBox="0 0 137 98" fill="none" xmlns="http://www.w3.org/2000/svg">
<path d="M80.2501 28.54C71.8701 28.59 63.3601 28.2 55.4001 25.99C47.4401 23.78 40.4001 19.61 34.0001 14.74C29.8101 11.57 26.0001 9.04997 20.5601 9.42997C15.2411 9.70952 10.1535 11.6941 6.05009 15.09C-0.869909 21.15 0.180093 32.35 2.94009 40.23C7.10009 52.1 19.7601 60.34 30.5101 65.71C42.9401 71.92 56.5901 75.53 70.2801 77.6C82.2801 79.42 97.6901 80.75 108.08 72.91C117.63 65.72 120.25 49.28 117.91 38.18C117.341 34.9015 115.595 31.9433 113 29.86C106.29 24.96 96.2901 28.23 88.7501 28.4C86.0001 28.46 83.1101 28.53 80.2501 28.54Z" fill="#F2F2F2"/>
<path d="M120.97 75.4399V79.7399" stroke="#CFCFCF" stroke-width="0.85" stroke-linecap="round" stroke-linejoin="round"/>
<path d="M118.82 77.59H123.12" stroke="#CFCFCF" stroke-width="0.85" stroke-linecap="round" stroke-linejoin="round"/>
<path d="M6.89992 56.87C7.44116 56.87 7.87992 56.4313 7.87992 55.89C7.87992 55.3488 7.44116 54.91 6.89992 54.91C6.35868 54.91 5.91992 55.3488 5.91992 55.89C5.91992 56.4313 6.35868 56.87 6.89992 56.87Z" fill="#CFCFCF"/>
<path d="M63.18 97.04C83.4488 97.04 99.88 96.0192 99.88 94.76C99.88 93.5008 83.4488 92.48 63.18 92.48C42.9111 92.48 26.48 93.5008 26.48 94.76C26.48 96.0192 42.9111 97.04 63.18 97.04Z" fill="#F2F2F2"/>
<path d="M34.9101 1.41003H88.2101C89.5362 1.41003 90.8079 1.93682 91.7456 2.8745C92.6833 3.81218 93.2101 5.08395 93.2101 6.41003V69.82C93.2101 71.1461 92.6833 72.4179 91.7456 73.3556C90.8079 74.2933 89.5362 74.82 88.2101 74.82H28.0801C26.754 74.82 25.4822 74.2933 24.5445 73.3556C23.6069 72.4179 23.0801 71.1461 23.0801 69.82V13.36L34.9101 1.41003Z" fill="white" stroke="#BABABA" stroke-linecap="round" stroke-linejoin="round"/>
<path d="M92.97 32.3101H38.01V75.4301H92.97V32.3101Z" fill="#D2D2D2"/>
<path d="M23.0801 13.36H32.7701C33.3386 13.3574 33.8829 13.1297 34.2839 12.7268C34.6849 12.3239 34.9101 11.7785 34.9101 11.21V1.41003L23.0801 13.36Z" fill="white" stroke="#BABABA" stroke-linecap="round" stroke-linejoin="round"/>
<path d="M92.7 18.54H38.34C36.2248 18.54 34.51 20.2548 34.51 22.37V34C34.51 36.1153 36.2248 37.83 38.34 37.83H92.7C94.8153 37.83 96.53 36.1153 96.53 34V22.37C96.53 20.2548 94.8153 18.54 92.7 18.54Z" fill="white" stroke="#BABABA" stroke-linecap="round" stroke-linejoin="round"/>
<path d="M45.07 31.55C46.9146 31.55 48.41 30.0546 48.41 28.21C48.41 26.3654 46.9146 24.87 45.07 24.87C43.2253 24.87 41.73 26.3654 41.73 28.21C41.73 30.0546 43.2253 31.55 45.07 31.55Z" fill="#D2D2D2"/>
<path d="M55.57 31.55C57.4146 31.55 58.91 30.0546 58.91 28.21C58.91 26.3654 57.4146 24.87 55.57 24.87C53.7253 24.87 52.23 26.3654 52.23 28.21C52.23 30.0546 53.7253 31.55 55.57 31.55Z" fill="#D2D2D2"/>
<path d="M66.06 31.55C67.9046 31.55 69.4 30.0546 69.4 28.21C69.4 26.3654 67.9046 24.87 66.06 24.87C64.2153 24.87 62.72 26.3654 62.72 28.21C62.72 30.0546 64.2153 31.55 66.06 31.55Z" fill="#D2D2D2"/>
<path d="M92.7 39.92H38.34C36.2248 39.92 34.51 41.6348 34.51 43.75V55.38C34.51 57.4953 36.2248 59.21 38.34 59.21H92.7C94.8153 59.21 96.53 57.4953 96.53 55.38V43.75C96.53 41.6348 94.8153 39.92 92.7 39.92Z" fill="white" stroke="#BABABA" stroke-linecap="round" stroke-linejoin="round"/>
<path d="M45.07 52.94C46.9146 52.94 48.41 51.4446 48.41 49.6C48.41 47.7554 46.9146 46.26 45.07 46.26C43.2253 46.26 41.73 47.7554 41.73 49.6C41.73 51.4446 43.2253 52.94 45.07 52.94Z" fill="#D2D2D2"/>
<path d="M55.57 52.94C57.4146 52.94 58.91 51.4446 58.91 49.6C58.91 47.7554 57.4146 46.26 55.57 46.26C53.7253 46.26 52.23 47.7554 52.23 49.6C52.23 51.4446 53.7253 52.94 55.57 52.94Z" fill="#D2D2D2"/>
<path d="M66.06 52.94C67.9046 52.94 69.4 51.4446 69.4 49.6C69.4 47.7554 67.9046 46.26 66.06 46.26C64.2153 46.26 62.72 47.7554 62.72 49.6C62.72 51.4446 64.2153 52.94 66.06 52.94Z" fill="#D2D2D2"/>
<path d="M92.7 61.3101H38.34C36.2248 61.3101 34.51 63.0248 34.51 65.1401V76.7701C34.51 78.8853 36.2248 80.6001 38.34 80.6001H92.7C94.8153 80.6001 96.53 78.8853 96.53 76.7701V65.1401C96.53 63.0248 94.8153 61.3101 92.7 61.3101Z" fill="white" stroke="#BABABA" stroke-linecap="round" stroke-linejoin="round"/>
<path d="M45.07 74.32C46.9146 74.32 48.41 72.8246 48.41 70.98C48.41 69.1354 46.9146 67.64 45.07 67.64C43.2253 67.64 41.73 69.1354 41.73 70.98C41.73 72.8246 43.2253 74.32 45.07 74.32Z" fill="#D2D2D2"/>
<path d="M55.57 74.32C57.4146 74.32 58.91 72.8246 58.91 70.98C58.91 69.1354 57.4146 67.64 55.57 67.64C53.7253 67.64 52.23 69.1354 52.23 70.98C52.23 72.8246 53.7253 74.32 55.57 74.32Z" fill="#D2D2D2"/>
<path d="M66.06 74.32C67.9046 74.32 69.4 72.8246 69.4 70.98C69.4 69.1354 67.9046 67.64 66.06 67.64C64.2153 67.64 62.72 69.1354 62.72 70.98C62.72 72.8246 64.2153 74.32 66.06 74.32Z" fill="#D2D2D2"/>
<path d="M97.6199 42.8999C109.069 42.8999 118.35 33.6188 118.35 22.1699C118.35 10.7211 109.069 1.43994 97.6199 1.43994C86.171 1.43994 76.8899 10.7211 76.8899 22.1699C76.8899 33.6188 86.171 42.8999 97.6199 42.8999Z" fill="white" stroke="#BABABA" stroke-linecap="round" stroke-linejoin="round"/>
<path d="M112.34 37.21L117.86 42.73" stroke="#BABABA" stroke-linecap="round" stroke-linejoin="round"/>
<path d="M117.243 40.0502L115.53 41.8428C114.759 42.6493 114.788 43.9279 115.594 44.6988L130.485 58.9336C131.291 59.7045 132.57 59.6757 133.341 58.8693L135.054 57.0766C135.825 56.2702 135.796 54.9915 134.99 54.2206L120.099 39.9859C119.293 39.215 118.014 39.2438 117.243 40.0502Z" fill="white" stroke="#BABABA" stroke-linecap="round" stroke-linejoin="round"/>
</svg>
