<svg width="119" height="102" viewBox="0 0 119 102" fill="none" xmlns="http://www.w3.org/2000/svg">
<path d="M16.1099 74.13C16.6511 74.13 17.0899 73.6912 17.0899 73.15C17.0899 72.6087 16.6511 72.17 16.1099 72.17C15.5686 72.17 15.1299 72.6087 15.1299 73.15C15.1299 73.6912 15.5686 74.13 16.1099 74.13Z" fill="#CFCFCF"/>
<path d="M79.66 33.17C71.2899 33.17 62.77 32.83 54.7999 30.61C46.9799 28.44 39.7999 24.23 33.3999 19.36C29.2099 16.19 25.3999 13.66 19.9599 14.04C14.638 14.328 9.54874 16.3153 5.43995 19.71C-1.48005 25.77 -0.440053 37 2.32995 44.86C6.48995 56.73 19.1499 65 29.9099 70.35C42.34 76.56 56 80.17 69.6899 82.24C81.6899 84.07 97.1099 85.39 107.51 77.56C117.06 70.35 119.68 53.91 117.34 42.81C116.772 39.5309 115.026 36.5721 112.43 34.49C105.72 29.58 95.7099 32.86 88.1699 33.02C85.3699 33.08 82.52 33.15 79.66 33.17Z" fill="#F2F2F2"/>
<path d="M62.2299 83.48C68.4652 83.48 73.5199 78.4253 73.5199 72.19C73.5199 65.9547 68.4652 60.9 62.2299 60.9C55.9946 60.9 50.9399 65.9547 50.9399 72.19C50.9399 78.4253 55.9946 83.48 62.2299 83.48Z" fill="#D2D2D2"/>
<path d="M50.5636 1.70614C51.1878 1.56696 51.8333 1.55208 52.4632 1.66237C53.0932 1.77265 53.6953 2.00594 54.2351 2.3489C54.7749 2.69187 55.2418 3.13779 55.6093 3.66122C55.9768 4.18465 56.2375 4.77534 56.3767 5.39954L58.1809 13.4908L48.6548 15.6149L46.8506 7.52364C46.7111 6.89778 46.6965 6.25053 46.8077 5.61902C46.9189 4.98752 47.1538 4.3842 47.4988 3.84368C47.8437 3.30316 48.2921 2.83609 48.818 2.46928C49.3439 2.10246 49.9371 1.84312 50.5636 1.70614Z" fill="white" stroke="#BABABA" stroke-linecap="round" stroke-linejoin="round"/>
<path d="M95.0701 65.18L37.1801 78.08C36.8205 78.1607 36.4461 78.1462 36.0938 78.0381C35.7415 77.93 35.4235 77.7318 35.1711 77.4633C34.9187 77.1948 34.7407 76.8651 34.6546 76.5068C34.5685 76.1484 34.5773 75.7739 34.6801 75.42L34.9201 74.59C36.9201 67.5 38.6601 59.69 37.0601 52.49L33.6401 37.13C30.7601 24.22 38.5001 11.07 51.3401 7.89999C54.4711 7.12272 57.7259 6.97958 60.9131 7.47899C64.1002 7.9784 67.1553 9.11026 69.8984 10.808C72.6416 12.5057 75.0175 14.735 76.8863 17.3646C78.7551 19.9942 80.079 22.9711 80.7801 26.12L84.3101 42C85.9201 49.2 90.7801 55.56 95.6401 61.1L96.2101 61.75C96.4409 62.0283 96.597 62.3609 96.6637 62.7162C96.7305 63.0716 96.7057 63.4381 96.5916 63.7812C96.4776 64.1244 96.2781 64.4328 96.0119 64.6775C95.7457 64.9222 95.4216 65.0951 95.0701 65.18Z" fill="white" stroke="#BABABA" stroke-linecap="round" stroke-linejoin="round"/>
<path d="M52.25 55.28C52.2342 52.9443 53.0189 50.6737 54.4735 48.8462C55.9282 47.0187 57.9649 45.7446 60.2446 45.236C62.5243 44.7275 64.9094 45.0152 67.0028 46.0512C69.0963 47.0872 70.7716 48.809 71.75 50.93" stroke="#BABABA" stroke-linecap="round" stroke-linejoin="round"/>
<path d="M70.1099 39.05C70.8942 39.05 71.5299 38.4143 71.5299 37.63C71.5299 36.8458 70.8942 36.21 70.1099 36.21C69.3257 36.21 68.6899 36.8458 68.6899 37.63C68.6899 38.4143 69.3257 39.05 70.1099 39.05Z" fill="#BABABA"/>
<path d="M48.0899 43.96C48.8742 43.96 49.5099 43.3242 49.5099 42.54C49.5099 41.7557 48.8742 41.12 48.0899 41.12C47.3057 41.12 46.6699 41.7557 46.6699 42.54C46.6699 43.3242 47.3057 43.96 48.0899 43.96Z" fill="#BABABA"/>
<path d="M16.1099 74.13C16.6511 74.13 17.0899 73.6912 17.0899 73.15C17.0899 72.6087 16.6511 72.17 16.1099 72.17C15.5686 72.17 15.1299 72.6087 15.1299 73.15C15.1299 73.6912 15.5686 74.13 16.1099 74.13Z" fill="#CFCFCF"/>
<path d="M101.65 22.89V27.19" stroke="#BABABA" stroke-linecap="round" stroke-linejoin="round"/>
<path d="M99.5 25.04H103.8" stroke="#BABABA" stroke-linecap="round" stroke-linejoin="round"/>
<path d="M103.61 87.63V91.93" stroke="#BABABA" stroke-linecap="round" stroke-linejoin="round"/>
<path d="M101.46 89.78H105.76" stroke="#BABABA" stroke-linecap="round" stroke-linejoin="round"/>
<path d="M28.4299 6.59003V10.89" stroke="#BABABA" stroke-linecap="round" stroke-linejoin="round"/>
<path d="M26.28 8.73999H30.58" stroke="#BABABA" stroke-linecap="round" stroke-linejoin="round"/>
<path d="M59.5801 101.7C79.8545 101.7 96.2901 100.675 96.2901 99.41C96.2901 98.1453 79.8545 97.12 59.5801 97.12C39.3057 97.12 22.8701 98.1453 22.8701 99.41C22.8701 100.675 39.3057 101.7 59.5801 101.7Z" fill="#F2F2F2"/>
<path d="M94.6499 20.45C94.6473 23.4912 93.438 26.4071 91.2875 28.5576C89.1371 30.7081 86.2212 31.9174 83.1799 31.92C82.8058 31.92 82.4319 31.8999 82.0599 31.86L78.6599 37.41L77.5999 30.46C75.8335 29.4764 74.3584 28.0433 73.3242 26.306C72.2899 24.5687 71.7333 22.5889 71.7107 20.5671C71.6881 18.5454 72.2002 16.5536 73.1954 14.7936C74.1905 13.0336 75.6331 11.5679 77.3771 10.545C79.1211 9.52209 81.1046 8.97838 83.1264 8.96894C85.1482 8.95949 87.1366 9.48465 88.8901 10.4912C90.6436 11.4978 92.0999 12.9499 93.1114 14.7006C94.1229 16.4512 94.6537 18.4381 94.6499 20.46V20.45Z" fill="white" stroke="#BABABA" stroke-linecap="round" stroke-linejoin="round"/>
<path d="M78.2801 21.61C78.9208 21.61 79.4401 21.0906 79.4401 20.45C79.4401 19.8093 78.9208 19.29 78.2801 19.29C77.6395 19.29 77.1201 19.8093 77.1201 20.45C77.1201 21.0906 77.6395 21.61 78.2801 21.61Z" fill="#D2D2D2" stroke="#D2D2D2" stroke-miterlimit="10"/>
<path d="M83.18 21.61C83.8207 21.61 84.34 21.0906 84.34 20.45C84.34 19.8093 83.8207 19.29 83.18 19.29C82.5394 19.29 82.02 19.8093 82.02 20.45C82.02 21.0906 82.5394 21.61 83.18 21.61Z" fill="#D2D2D2" stroke="#D2D2D2" stroke-miterlimit="10"/>
<path d="M88.0799 21.61C88.7206 21.61 89.2399 21.0906 89.2399 20.45C89.2399 19.8093 88.7206 19.29 88.0799 19.29C87.4393 19.29 86.9199 19.8093 86.9199 20.45C86.9199 21.0906 87.4393 21.61 88.0799 21.61Z" fill="#D2D2D2" stroke="#D2D2D2" stroke-miterlimit="10"/>
</svg>
