<svg width="290" height="190" viewBox="0 0 290 190" fill="none" xmlns="http://www.w3.org/2000/svg">
<path d="M138.468 86.8828H117.78V95.7329H138.468V86.8828Z" fill="black"/>
<path d="M133.178 58.292C133.178 58.292 113.692 68.1722 124.923 85.3069C124.923 85.3069 135.461 91.9653 131.316 103.178C127.171 114.391 134.271 126.783 143.728 132.108C143.728 132.108 150.824 139.779 147.276 151.584C143.728 163.388 147.395 161.775 147.395 161.775H194.169L149.037 88.4235L151.992 76.0316L133.178 58.292Z" fill="black"/>
<path d="M186.375 149.861L200.224 94.6874L150.604 81.1865L143.724 84.3908L186.375 149.861Z" fill="black"/>
<path d="M177.067 10.9207C176.478 10.8112 175.877 10.7817 175.28 10.833C176 8.15034 176.518 4.3587 175.596 2.21084C174.222 -0.997812 161.84 0.378575 157.713 5.87097C154.385 10.3114 167.127 12.6433 172.211 13.3797C171.57 16.6366 167.675 15.7555 166.472 17.5571C165.269 19.3587 165.866 20.2792 166.472 22.3789C167.078 24.4785 165.261 23.8867 163.75 25.0966C162.24 26.3064 160.268 27.9677 162.991 29.1775L178.125 31.8952C178.423 31.3461 178.634 30.7548 178.753 30.1419C178.854 30.1725 178.951 30.2032 179.052 30.2251C179.452 30.3351 179.862 30.4013 180.277 30.4224H180.474C181.508 30.4391 182.508 30.0504 183.258 29.3397C185.783 26.999 185.646 22.6945 185.19 19.7927H187.824C187.824 19.7927 191.447 10.4648 177.067 10.9207ZM182.362 28.4148C181.82 28.9348 181.084 29.2049 180.334 29.16C179.79 29.1281 179.255 29.0098 178.749 28.8093C178.641 28.3185 178.37 27.8784 177.98 27.56C176.163 26.0478 174.652 24.8379 175.86 23.615C177.067 22.392 176.769 20.8973 175.86 19.6699L175.82 19.648C175.617 19.3511 175.653 18.9526 175.905 18.6958C176.156 18.4391 176.555 18.3955 176.856 18.5916L178.722 19.8321H183.842C184.29 22.4665 184.505 26.4291 182.362 28.4148Z" fill="black"/>
<path d="M285.083 127.348C282.584 117.841 277.078 111.099 269.575 108.359C262.071 105.62 253.509 107.228 245.456 112.883C243.898 113.981 242.417 115.183 241.022 116.482L228.978 82.8172C226.648 76.3415 221.09 71.5579 214.331 70.2106C213.499 70.0441 212.657 69.9328 211.811 69.8774L212.553 70.2018L211.648 71.1881C212.197 71.2188 212.741 71.2757 213.277 71.359C219.917 72.3821 225.464 76.9482 227.736 83.26L235.613 105.278L235.336 105.116L202.05 161.1H127.356C127.768 160.132 128.163 159.137 128.532 158.128C133.494 144.579 133.085 130.855 128.405 121.058L131.852 116.85L130.833 116.017L127.76 119.774C124.892 114.43 120.673 110.406 115.303 108.443C100.015 102.867 81.0821 116.074 73.091 137.895C69.8639 146.71 68.9111 155.604 69.9297 163.441C71.4313 174.996 77.2183 184.254 86.3246 187.58C87.0745 187.853 87.8398 188.081 88.6165 188.264C89.0556 188.378 89.4947 188.47 89.9645 188.545C91.1782 188.754 92.4078 188.858 93.6395 188.856C95.4124 188.852 97.1795 188.652 98.9083 188.26C103.993 187.125 109.06 184.403 113.652 180.405C118.851 175.886 123.448 169.736 126.78 162.433H202.801L236.047 106.51L239.999 117.49C234.515 122.886 230.036 129.974 227.086 138.035C223.31 148.349 222.62 158.768 224.548 167.5C226.682 177.174 232.012 184.775 239.915 187.887L240.166 187.984L240.416 188.076C241.875 188.598 243.387 188.96 244.925 189.154C245.865 189.273 246.81 189.334 247.757 189.334C248.785 189.333 249.812 189.264 250.831 189.128C252.696 188.884 254.53 188.443 256.301 187.813C267.173 183.96 277.517 173.128 282.909 158.4C286.786 147.792 287.563 136.764 285.083 127.348ZM127.492 122.176C131.777 131.604 132.04 144.72 127.294 157.681C126.855 158.847 126.416 159.991 125.92 161.105H95.5845L127.492 122.176ZM86.7724 186.349C72.169 181.019 66.5752 159.487 74.3248 138.351C80.8801 120.444 94.9259 108.5 107.949 108.5C110.301 108.493 112.636 108.901 114.847 109.705C120.071 111.612 124.142 115.592 126.864 120.887L92.8052 162.415H125.327C116.774 180.694 100.252 191.267 86.7724 186.349ZM281.667 157.944C275.568 174.601 263.028 186.165 250.813 187.83C249.812 187.97 248.803 188.04 247.792 188.041C246.857 188.042 245.922 187.979 244.995 187.852C243.578 187.66 242.186 187.316 240.842 186.827C226.129 181.457 220.504 159.763 228.302 138.473C231.103 130.811 235.327 124.052 240.464 118.844L249.847 145.075L251.09 144.636L241.5 117.832C242.975 116.428 244.551 115.134 246.216 113.961C251.485 110.266 256.943 108.377 262.141 108.377C264.522 108.37 266.885 108.783 269.122 109.595C276.209 112.182 281.416 118.603 283.809 127.681C286.22 136.843 285.46 147.591 281.667 157.944Z" fill="black"/>
<path d="M205.611 72.6696L204.294 71.793V83.4747H205.611V72.6696Z" fill="black"/>
<path d="M231.775 94.8276H200.162V96.1427H231.775V94.8276Z" fill="black"/>
<path d="M188.931 168.061L184.72 163.261L178.454 165.953L176.698 162.42L176.04 161.105L175.798 160.623L168.553 161.1L166.327 161.249L166.521 161.758L166.766 162.415L171.289 174.443L176.259 173.212L175.109 170.143L178.121 171.147L188.931 168.061ZM174.503 172.291L172.123 172.887L168.193 162.446L168.584 162.42L174.986 161.981L175.201 162.42L177.835 167.649L184.386 164.844L186.582 167.369L178.147 169.775L172.905 168.022L174.503 172.291Z" fill="black"/>
<path d="M190.422 168.234L167.146 176.636L168.551 180.513L191.827 172.11L190.422 168.234Z" fill="black"/>
<path d="M118.506 64.043H76.7725V65.358H118.506V64.043Z" fill="black"/>
<path d="M112.539 78.2366H88.6934V79.5516H112.539V78.2366Z" fill="black"/>
<path d="M109.33 97.0107H73.1021V98.3258H109.33V97.0107Z" fill="black"/>
<path d="M183.745 51.0157L178.99 29.9754L177.704 30.2647L182.582 51.8179L203.262 64.8366L198.551 70.3641L173.625 61.457L170.112 47.132L167.763 37.5631L166.481 37.8787L168.676 46.7858C157.107 61.8471 136.738 55.6008 132.392 54.0403L167.517 28.1782L166.736 27.1174L129.437 54.5794L153.379 78.9643L171.746 59.2828L172.531 62.4871L198.977 71.9158L205.238 64.5517L183.745 51.0157ZM153.34 77.0268L132.106 55.4035C136.392 56.9177 140.874 57.8036 145.415 58.0336C146 58.0599 146.585 58.073 147.171 58.073C156.312 58.073 163.825 54.7679 169.067 48.4295L171.346 57.7179L153.34 77.0268Z" fill="black"/>
<path d="M230.827 79.1309L238.194 99.2419H266.123L275.489 80.0908L230.827 79.1309ZM249.86 80.8579L249.557 81.0946L251.476 83.5406L243.283 89.9842L237.922 80.5993L249.86 80.8579ZM254.484 97.9269H246.453L247.481 97.3395L243.942 91.1414L252.284 84.5663L258.686 92.7194L254.216 97.6946L254.484 97.9269ZM259.511 93.7583L262.787 97.9269H255.761L259.511 93.7583ZM232.728 80.4897L237.395 80.5905L236.649 81.0289L242.238 90.8214L238.251 93.9599L239.068 94.99L242.901 91.9786L246.304 97.94H239.116L232.728 80.4897ZM265.302 97.9269H263.107L263.959 97.2606L260.424 92.7632L267.12 85.2676L266.137 84.3909L259.577 91.6981L253.325 83.7422L254.203 83.0584L253.39 82.0239L252.512 82.7077L251.063 80.8667L273.381 81.3445L265.302 97.9269Z" fill="black"/>
<path d="M153.779 12.8976C141.915 1.05626 122.684 1.05626 110.82 12.8976L99.2771 24.4216L132.563 57.6521L133.494 56.7229L108.37 31.641L124.743 18.6399C128.646 15.5515 129.478 9.96865 126.644 5.87979C128.51 5.51378 130.407 5.33027 132.308 5.33187C140.015 5.31017 147.41 8.36572 152.848 13.8181L166.687 27.6434L167.618 26.7141L153.779 12.8976ZM126.956 12.0648C126.74 14.245 125.645 16.2436 123.922 17.601L107.435 30.703L101.139 24.4216L111.751 13.8181C115.463 10.0983 120.123 7.46103 125.226 6.19101C126.554 7.84584 127.175 9.95596 126.956 12.0648Z" fill="black"/>
<path d="M175.302 98.6234L164.045 114.511L165.125 115.273L176.382 99.3857L175.302 98.6234Z" fill="white"/>
<path d="M198.976 96.7213C182.669 96.546 157.91 96.3882 156.54 96.6819C156.639 96.6558 156.729 96.6027 156.799 96.5285L155.869 95.5992C156.158 95.3099 156.352 95.117 177.822 95.2354C188.307 95.2923 198.897 95.4063 198.981 95.4063L198.976 96.7213Z" fill="white"/>
<path d="M186.691 150.887L148.124 89.9577L152.721 86.3896L153.528 87.4285L149.875 90.2646L187.807 150.186L186.691 150.887Z" fill="white"/>
<path d="M131.101 110.647L130.662 109.407C136.743 107.298 140.918 103.757 141.573 100.171C141.893 98.3562 141.23 96.7168 139.654 95.4281C133.977 90.7905 137.415 80.5246 139.966 76.2683C140.205 75.8709 140.246 75.3848 140.075 74.9533C138.978 71.4465 129.446 66.5503 125.863 64.9547L126.403 63.7537C126.952 63.9991 139.834 69.7984 141.331 74.5587C141.611 75.3429 141.526 76.2108 141.099 76.9258C138.174 81.787 135.966 90.694 140.488 94.3936C142.429 95.976 143.272 98.1064 142.868 100.386C142.13 104.458 137.621 108.381 131.101 110.647Z" fill="white"/>
<path d="M149.507 143.128L148.945 141.94C149.024 141.905 156.628 138.302 159.25 134.813C159.681 134.337 159.805 133.658 159.57 133.06C158.727 130.916 153.823 128.838 149.568 128.063C148.879 127.94 147.944 127.686 147.733 126.905C147.474 125.945 148.501 125.078 149.928 123.872C151.856 122.237 154.253 120.203 153.647 117.976C153.556 117.647 153.31 117.382 152.988 117.266C149.836 115.951 139.188 121.273 135.351 123.434L134.706 122.29C136.172 121.461 149.195 114.255 153.493 116.052C154.199 116.327 154.731 116.921 154.925 117.652C155.755 120.685 152.887 123.118 150.793 124.893C150.13 125.454 149.243 126.208 149.059 126.568C149.3 126.682 149.558 126.758 149.823 126.791C153.59 127.475 159.627 129.588 160.799 132.599C161.198 133.619 161.01 134.775 160.308 135.615C157.485 139.354 149.832 142.979 149.507 143.128Z" fill="white"/>
<path d="M189.633 162.306C189.572 162.209 183.565 152.627 179.201 150.449C177.928 149.813 177.607 149.918 177.594 149.927C177.405 150.238 177.87 152.036 178.209 153.351C178.627 154.882 178.967 156.435 179.227 158.001C179.359 158.878 179.42 159.895 178.687 160.311C177.695 160.872 176.378 159.781 173.752 157.611C170.78 155.161 166.727 151.799 162.336 150.488C160.554 149.958 159.263 150.085 158.49 150.87C156.497 152.895 157.871 158.944 158.569 161.105L157.313 161.508C157.199 161.162 154.595 152.956 157.546 149.949C158.688 148.787 160.426 148.546 162.714 149.23C167.346 150.615 171.535 154.074 174.591 156.599C175.842 157.633 177.37 158.896 177.985 159.106C178.002 158.804 177.982 158.501 177.928 158.203C177.671 156.679 177.339 155.17 176.931 153.679C176.277 151.146 175.886 149.62 176.786 148.893C177.541 148.283 178.727 148.744 179.789 149.274C184.487 151.619 190.498 161.206 190.766 161.613L189.633 162.306Z" fill="white"/>
<path d="M189.646 135.567C188.329 134.62 176.808 126.204 177.409 121.952C177.502 121.303 177.901 120.431 179.271 119.94C180.092 119.646 180.966 119.348 181.866 119.042C185.774 117.727 191.675 115.697 191.912 114.044C191.973 113.606 191.473 113.168 191.034 112.857C188.663 111.2 187.591 108.793 188.298 106.72C188.737 105.479 190.459 102.63 197.405 102.959L197.339 104.274C193.141 104.077 190.226 105.151 189.545 107.149C189.032 108.648 189.91 110.468 191.789 111.778C192.856 112.523 193.33 113.347 193.207 114.229C192.882 116.512 188.672 118.108 182.279 120.286C181.401 120.593 180.522 120.887 179.706 121.163C178.889 121.439 178.744 121.851 178.705 122.123C178.336 124.753 185.686 131.091 190.406 134.484L189.646 135.567Z" fill="white"/>
<path d="M162.723 92.3774C161.998 92.3949 161.284 92.2015 160.668 91.8207C157.752 89.9621 158.911 84.2242 158.982 83.9832L160.268 84.2505C159.974 85.6664 159.592 89.5764 161.375 90.7117C162.512 91.4349 165.076 91.3867 170.845 87.0691L171.636 88.1211C167.833 90.9659 164.887 92.3774 162.723 92.3774Z" fill="white"/>
<path d="M204.605 65.31L203.196 64.6963L203.139 64.7796L202.37 65.8886L199.438 70.1449L200.087 70.5832L204.294 73.3842L205.611 74.2609L208.719 76.3298L213.277 71.3678L214.331 70.2194L214.77 69.7416L204.605 65.31ZM212.553 70.2018L211.648 71.1881L208.513 74.6028L205.611 72.6697L204.294 71.793L201.286 69.7898L203.415 66.7214L203.67 66.3488H203.714L211.815 69.8555L212.553 70.2018Z" fill="black"/>
<path d="M74.037 8.55304L48.0415 27.1345L66.6655 53.0984L92.661 34.5169L74.037 8.55304Z" fill="#F4A019"/>
<path d="M239.418 24.3652L227.596 32.8159L236.066 44.6241L247.888 36.1734L239.418 24.3652Z" fill="#F4A019"/>
<path d="M76.1908 189.593C1.24166 189.593 0.455721 189.115 0.0737305 188.887L0.749898 187.76C0.714189 187.738 0.675839 187.72 0.63574 187.708C4.82007 188.747 191.152 188.146 289.104 187.664V188.979C288.389 188.979 216.658 189.325 145.616 189.496C117.318 189.557 94.5307 189.593 76.1908 189.593Z" fill="black"/>
<path d="M70.483 163.156C70.483 163.156 61.4075 167.487 60.4898 174.356C59.5721 181.225 55.9015 171.607 50.3912 172.979C44.8809 174.351 47.6382 184.429 40.758 181.681C33.8778 178.932 27.4586 183.969 19.2041 188.549H90.7549C90.7549 188.549 74.9791 187.668 70.483 163.156Z" fill="black"/>
<path d="M191.188 188.089C191.188 188.089 199.903 186.717 203.569 183.053C207.235 179.388 211.828 188.089 213.668 185.341C215.508 182.592 214.586 175.728 215.964 176.644C217.343 177.56 219.622 185.341 222.361 182.579C225.101 179.818 219.354 173.093 225.215 166.619C225.215 166.619 228.522 185.981 242.87 187.944L191.188 188.089Z" fill="black"/>
<path d="M78.9395 44.388L69.5214 30.0718L56.2923 38.7465L48.5164 43.8444L62.2109 64.6656L83.2116 50.8973L78.9395 44.388ZM50.3385 44.2214L57.0563 39.8161L69.1263 31.8953L77.8506 45.1551L81.3631 50.5116L62.5622 62.8377L50.3385 44.2214Z" fill="black"/>
</svg>
